<svg width="60" height="22" viewBox="0 0 60 22" fill="none" xmlns="http://www.w3.org/2000/svg">
<rect width="60" height="22" rx="4" fill="#EFF2FC"/>
<path d="M8.98 16V5.92H12.137C12.2303 5.92 12.403 5.92233 12.655 5.927C12.9117 5.93167 13.1567 5.95033 13.39 5.983C14.1787 6.081 14.8413 6.36333 15.378 6.83C15.9193 7.29667 16.3277 7.88933 16.603 8.608C16.8783 9.322 17.016 10.106 17.016 10.96C17.016 11.8187 16.8783 12.6073 16.603 13.326C16.3277 14.04 15.9193 14.6303 15.378 15.097C14.8413 15.559 14.1787 15.839 13.39 15.937C13.1567 15.9697 12.9117 15.9883 12.655 15.993C12.403 15.9977 12.2303 16 12.137 16H8.98ZM10.478 14.607H12.137C12.2957 14.607 12.4847 14.6023 12.704 14.593C12.9233 14.5837 13.117 14.565 13.285 14.537C13.7983 14.439 14.2137 14.2173 14.531 13.872C14.853 13.522 15.0887 13.0927 15.238 12.584C15.3873 12.0753 15.462 11.534 15.462 10.96C15.462 10.3673 15.385 9.819 15.231 9.315C15.077 8.80633 14.839 8.38167 14.517 8.041C14.1997 7.69567 13.789 7.47633 13.285 7.383C13.117 7.35033 12.921 7.33167 12.697 7.327C12.4777 7.31767 12.291 7.313 12.137 7.313H10.478V14.607ZM18.786 7.201V5.78H20.249V7.201H18.786ZM18.786 16V8.44H20.249V16H18.786ZM25.4661 19.57C25.0601 19.57 24.6658 19.507 24.2831 19.381C23.9051 19.255 23.5598 19.0683 23.2471 18.821C22.9344 18.5783 22.6754 18.2773 22.4701 17.918L23.8211 17.232C23.9844 17.554 24.2178 17.7897 24.5211 17.939C24.8244 18.0883 25.1441 18.163 25.4801 18.163C25.8954 18.163 26.2501 18.0883 26.5441 17.939C26.8381 17.7943 27.0598 17.575 27.2091 17.281C27.3631 16.987 27.4378 16.623 27.4331 16.189V14.075H27.6081V8.44H28.9031V16.203C28.9031 16.4037 28.8961 16.595 28.8821 16.777C28.8681 16.959 28.8424 17.141 28.8051 17.323C28.6978 17.8317 28.4924 18.2517 28.1891 18.583C27.8904 18.9143 27.5078 19.1617 27.0411 19.325C26.5791 19.4883 26.0541 19.57 25.4661 19.57ZM25.3541 16.21C24.6494 16.21 24.0404 16.035 23.5271 15.685C23.0184 15.335 22.6241 14.859 22.3441 14.257C22.0688 13.6503 21.9311 12.969 21.9311 12.213C21.9311 11.4523 22.0711 10.7733 22.3511 10.176C22.6311 9.574 23.0278 9.10033 23.5411 8.755C24.0591 8.405 24.6728 8.23 25.3821 8.23C26.0961 8.23 26.6958 8.405 27.1811 8.755C27.6711 9.10033 28.0398 9.574 28.2871 10.176C28.5391 10.778 28.6651 11.457 28.6651 12.213C28.6651 12.969 28.5391 13.648 28.2871 14.25C28.0351 14.852 27.6641 15.3303 27.1741 15.685C26.6841 16.035 26.0774 16.21 25.3541 16.21ZM25.5571 14.887C26.0378 14.887 26.4298 14.7727 26.7331 14.544C27.0364 14.3153 27.2581 14.0003 27.3981 13.599C27.5381 13.1977 27.6081 12.7357 27.6081 12.213C27.6081 11.6903 27.5358 11.2283 27.3911 10.827C27.2511 10.4257 27.0318 10.113 26.7331 9.889C26.4391 9.665 26.0634 9.553 25.6061 9.553C25.1208 9.553 24.7218 9.672 24.4091 9.91C24.0964 10.148 23.8631 10.4677 23.7091 10.869C23.5598 11.2703 23.4851 11.7183 23.4851 12.213C23.4851 12.7123 23.5598 13.165 23.7091 13.571C23.8631 13.9723 24.0918 14.292 24.3951 14.53C24.7031 14.768 25.0904 14.887 25.5571 14.887ZM31.0087 7.201V5.78H32.4717V7.201H31.0087ZM31.0087 16V8.44H32.4717V16H31.0087ZM38.8998 16C38.4238 16.0933 37.9571 16.133 37.4998 16.119C37.0424 16.105 36.6341 16.0163 36.2748 15.853C35.9154 15.6897 35.6448 15.433 35.4628 15.083C35.2994 14.7703 35.2108 14.453 35.1968 14.131C35.1874 13.8043 35.1828 13.4357 35.1828 13.025V6.34H36.6528V12.955C36.6528 13.2583 36.6551 13.522 36.6598 13.746C36.6691 13.97 36.7181 14.159 36.8068 14.313C36.9748 14.6023 37.2408 14.768 37.6048 14.81C37.9734 14.8473 38.4051 14.831 38.8998 14.761V16ZM33.7338 9.616V8.44H38.8998V9.616H33.7338ZM42.6287 16.21C42.0687 16.21 41.5997 16.1073 41.2217 15.902C40.8437 15.692 40.5567 15.4167 40.3607 15.076C40.1693 14.7307 40.0737 14.3527 40.0737 13.942C40.0737 13.5593 40.1413 13.2233 40.2767 12.934C40.412 12.6447 40.6127 12.3997 40.8787 12.199C41.1447 11.9937 41.4713 11.828 41.8587 11.702C42.1947 11.604 42.575 11.5177 42.9997 11.443C43.4243 11.3683 43.87 11.2983 44.3367 11.233C44.808 11.1677 45.2747 11.1023 45.7367 11.037L45.2047 11.331C45.214 10.7383 45.088 10.2997 44.8267 10.015C44.57 9.72567 44.1267 9.581 43.4967 9.581C43.1 9.581 42.736 9.67433 42.4047 9.861C42.0733 10.043 41.8423 10.3463 41.7117 10.771L40.3467 10.351C40.5333 9.70233 40.888 9.18667 41.4107 8.804C41.938 8.42133 42.638 8.23 43.5107 8.23C44.1873 8.23 44.7753 8.34667 45.2747 8.58C45.7787 8.80867 46.1473 9.17267 46.3807 9.672C46.502 9.91933 46.5767 10.1807 46.6047 10.456C46.6327 10.7313 46.6467 11.0277 46.6467 11.345V16H45.3517V14.271L45.6037 14.495C45.291 15.0737 44.892 15.5053 44.4067 15.79C43.926 16.07 43.3333 16.21 42.6287 16.21ZM42.8877 15.013C43.303 15.013 43.66 14.9407 43.9587 14.796C44.2573 14.6467 44.4977 14.4577 44.6797 14.229C44.8617 14.0003 44.9807 13.7623 45.0367 13.515C45.116 13.291 45.1603 13.039 45.1697 12.759C45.1837 12.479 45.1907 12.255 45.1907 12.087L45.6667 12.262C45.2047 12.332 44.7847 12.395 44.4067 12.451C44.0287 12.507 43.6857 12.563 43.3777 12.619C43.0743 12.6703 42.8037 12.7333 42.5657 12.808C42.365 12.878 42.1853 12.962 42.0267 13.06C41.8727 13.158 41.749 13.277 41.6557 13.417C41.567 13.557 41.5227 13.7273 41.5227 13.928C41.5227 14.124 41.5717 14.306 41.6697 14.474C41.7677 14.6373 41.917 14.768 42.1177 14.866C42.3183 14.964 42.575 15.013 42.8877 15.013ZM48.6044 16V5.71H50.0674V16H48.6044Z" fill="#33354D"/>
</svg>
